<svg xmlns="http://www.w3.org/2000/svg" width="23" height="23" viewBox="0 0 23 23">
  <g fill="none">
    <rect width="23" height="23" fill="#DE3737"/>
    <g fill="#FFF" transform="translate(5 5)">
      <path d="M6.8196459,7.3507862 L6.2569294,6.9138088 C6.085557,6.7716818 5.8511744,6.5840626 5.8511744,6.240612 C5.8511744,5.8957481 6.0855561,5.6764822 6.2889996,5.473464 C6.9445363,4.9575109 7.5995083,4.4083576 7.5995083,3.2511368 C7.5995083,2.0611396 6.8507261,1.4351301 6.4918776,1.1381602 L7.4595004,1.1381602 L8.4751597,0.5000009 L5.3982325,0.5000009 C4.5539465,0.5000009 3.3372469,0.6997699 2.4464803,1.4351301 C1.7751203,2.0143761 1.4476342,2.8130293 1.4476342,3.5320005 C1.4476342,4.7525148 2.3847408,5.9896993 4.0395479,5.9896993 C4.1958036,5.9896993 4.3667517,5.9742994 4.5388298,5.9583349 C4.4615498,6.1463785 4.3834228,6.3029165 4.3834228,6.5686626 C4.3834228,7.0533924 4.6324987,7.3506441 4.8520469,7.6322145 C4.148899,7.6805324 2.8362707,7.758377 1.8686475,8.3531637 C0.9470815,8.9011869 0.6666412,9.6988516 0.6666412,10.2618503 C0.6666412,11.4206238 1.7588735,12.5 4.0237246,12.5 C6.7094489,12.5 8.1312857,11.0138817 8.1312857,9.542738 C8.1314268,8.4618082 7.5069714,7.9297495 6.8196459,7.3507862 Z M4.7740602,5.5511675 C3.4304914,5.5511675 2.8218593,3.8142777 2.8218593,2.7662654 C2.8218593,2.3582501 2.8991393,1.936955 3.1648864,1.6079145 C3.4153748,1.2945566 3.8516464,1.0912552 4.258955,1.0912552 C5.5542059,1.0912552 6.2259893,2.8436866 6.2259893,3.9708147 C6.2259893,4.2528086 6.1949081,4.7525148 5.8357753,5.1137657 C5.5845804,5.3643961 5.1642742,5.5511675 4.7740602,5.5511675 Z M4.7894592,11.8441811 C3.1186876,11.8441811 2.0412907,11.0449639 2.0412907,9.9336586 C2.0412907,8.8226366 3.0402774,8.4468327 3.3840112,8.3223658 C4.0395479,8.1018286 4.8831281,8.0710297 5.0238427,8.0710297 C5.1799563,8.0710297 5.2580842,8.0710297 5.3824109,8.086711 C6.5701474,8.9319869 7.0856761,9.353282 7.0856761,10.1534892 C7.0856752,11.1225262 6.2890005,11.8441811 4.7894592,11.8441811 Z"/>
      <polygon points="10.763 5.527 10.763 3.963 9.991 3.963 9.991 5.527 8.428 5.527 8.428 6.309 9.991 6.309 9.991 7.883 10.763 7.883 10.763 6.309 12.333 6.309 12.333 5.527"/>
    </g>
  </g>
</svg>
