<svg xmlns="http://www.w3.org/2000/svg" width="23" height="23" viewBox="0 0 23 23">
  <g fill="none">
    <rect width="23" height="23" fill="#0080B5"/>
    <g fill="#FFF" transform="translate(5 5)">
      <rect width="2.572" height="7.739" x=".652" y="4.267"/>
      <path d="M1.9552612.5358887C1.0753174.5358887.5 1.1136475.5 1.8730469.5 2.6157227 1.0582275 3.210022 1.9215088 3.210022L1.9381714 3.210022 1.9382324 3.210022C2.8352661 3.210022 3.3936157 2.6157227 3.3936157 1.8730469 3.3768921 1.1136475 2.8352661.5358887 1.9552612.5358887zM9.5385132 4.085083C8.1719971 4.085083 7.5618897 4.8361816 7.2202759 5.3636475L7.2202759 4.2667236 4.6478882 4.2667236C4.6816406 4.9929199 4.6478882 12.0059204 4.6478882 12.0059204L7.2201538 12.0059204 7.2201538 7.684021C7.2201538 7.4526978 7.2368774 7.2216187 7.3048096 7.0562744 7.4907837 6.5941772 7.9140625 6.1155395 8.6246949 6.1155395 9.555481 6.1155395 9.9278565 6.8252563 9.9278565 7.8656005L9.9278565 12.0059203 12.5 12.0059204 12.5 7.5683593C12.5 5.1912231 11.230896 4.085083 9.5385132 4.085083z"/>
    </g>
  </g>
</svg>
